<?xml version="1.0" encoding="UTF-8"?>
<svg xmlns="http://www.w3.org/2000/svg" width="512" height="512" viewBox="0 0 512 512"><g><path d="M464,24H344V16a8,8,0,0,0-16,0v8H264V16a8,8,0,0,0-16,0v8H184V16a8,8,0,0,0-16,0v8H48a8,8,0,0,0-8,8V496a8,8,0,0,0,8,8H464a8,8,0,0,0,8-8V32A8,8,0,0,0,464,24Zm-8,464H56V40H168v8a8,8,0,0,0,16,0V40h64v8a8,8,0,0,0,16,0V40h64v8a8,8,0,0,0,16,0V40H456Z"/><path d="M88,96A24,24,0,1,0,64,72,24.027,24.027,0,0,0,88,96Zm0-32a8,8,0,1,1-8,8A8.009,8.009,0,0,1,88,64Z"/><path d="M424,96a24,24,0,1,0-24-24A24.027,24.027,0,0,0,424,96Zm0-32a8,8,0,1,1-8,8A8.009,8.009,0,0,1,424,64Z"/><path d="M88,432a24,24,0,1,0,24,24A24.027,24.027,0,0,0,88,432Zm0,32a8,8,0,1,1,8-8A8.009,8.009,0,0,1,88,464Z"/><path d="M424,432a24,24,0,1,0,24,24A24.027,24.027,0,0,0,424,432Zm0,32a8,8,0,1,1,8-8A8.009,8.009,0,0,1,424,464Z"/><path d="M255.141,125.972a8,8,0,0,0-5.22-3.2L107.7,100.2a8,8,0,0,0-9.155,6.648L63.432,328.074a8,8,0,0,0,6.647,9.155L212.3,359.8a8.11,8.11,0,0,0,1.264.1,8,8,0,0,0,7.891-6.747l35.115-221.23A7.994,7.994,0,0,0,255.141,125.972ZM206.905,342.747,80.488,322.682,113.1,117.253l126.417,20.065Z"/><path d="M107.374,219.274a8,8,0,0,0,5.219,3.2l94.814,15.049a7.992,7.992,0,0,0,9.155-6.647L229.1,151.867a8,8,0,0,0-6.646-9.155l-94.814-15.05a8,8,0,0,0-9.155,6.648l-12.541,79.01A7.994,7.994,0,0,0,107.374,219.274Zm25.662-74.555,79.011,12.541-10.033,63.209L123,207.928Z"/><path d="M204.9,253.327l-94.813-15.05a8,8,0,0,0-2.508,15.8l94.813,15.05a8.11,8.11,0,0,0,1.264.1,8,8,0,0,0,1.244-15.9Z"/><path d="M161.631,270.76l-55.308-8.78a8,8,0,0,0-2.509,15.8l55.308,8.779a8,8,0,0,0,2.509-15.8Z"/><path d="M126.264,289.446l-23.7-3.762a8,8,0,1,0-2.509,15.8l23.7,3.763a8.112,8.112,0,0,0,1.264.1,8,8,0,0,0,1.245-15.9Z"/><path d="M280,104a8,8,0,0,0-8,8V224a8,8,0,0,0,8,8H424a8,8,0,0,0,8-8V136a8,8,0,0,0-2.343-5.657l-24-24A8,8,0,0,0,400,104Zm8,112V120h96v24a8,8,0,0,0,8,8h24v64Zm124.687-80H400V123.313Z"/><path d="M432,344a8,8,0,0,0,8-8V248a8,8,0,0,0-8-8H360a8,8,0,0,0-8,8v88a8,8,0,0,0,8,8Zm-64-88h56v72H368Z"/><path d="M256,336a8,8,0,0,0,8,8h72a8,8,0,0,0,8-8V248a8,8,0,0,0-8-8H264a8,8,0,0,0-8,8Zm16-80h56v72H272Z"/><path d="M376,160H304a8,8,0,0,0,0,16h72a8,8,0,0,0,0-16Z"/><path d="M336,184H304a8,8,0,0,0,0,16h32a8,8,0,0,0,0-16Z"/><path d="M357.657,354.343A8,8,0,0,0,352,352H232a8,8,0,0,0-8,8V472a8,8,0,0,0,8,8H376a8,8,0,0,0,8-8V384a8,8,0,0,0-2.343-5.657ZM364.687,384H352V371.313ZM240,464V368h96v24a8,8,0,0,0,8,8h24v64Z"/><path d="M328,408H256a8,8,0,0,0,0,16h72a8,8,0,0,0,0-16Z"/><path d="M288,432H256a8,8,0,0,0,0,16h32a8,8,0,0,0,0-16Z"/></g></svg>
